<?xml version="1.0" encoding="UTF-8" standalone="no"?>
<svg
   xmlns:dc="http://purl.org/dc/elements/1.1/"
   xmlns:cc="http://creativecommons.org/ns#"
   xmlns:rdf="http://www.w3.org/1999/02/22-rdf-syntax-ns#"
   xmlns:svg="http://www.w3.org/2000/svg"
   xmlns="http://www.w3.org/2000/svg"
   height="91.630882"
   width="91.630882"
   id="svg8"
   xml:space="preserve"
   enable-background="new 0 0 40 40"
   viewBox="0 0 91.630884 91.630884"
   y="0px"
   x="0px"
   version="1.1"><metadata
     id="metadata14"><rdf:RDF><cc:Work
         rdf:about=""><dc:format>image/svg+xml</dc:format><dc:type
           rdf:resource="http://purl.org/dc/dcmitype/StillImage" /><dc:title></dc:title></cc:Work></rdf:RDF></metadata><defs
     id="defs12">



</defs><g
     id="g895"
     transform="matrix(0.99087107,0,0,0.99087107,27.197887,-5.1290824)"><path
       id="path891"
       d="M 38.59694,53.120176 A 17.661228,17.661228 0 0 1 20.935712,70.781404 17.661228,17.661228 0 0 1 3.2744836,53.120176 17.661228,17.661228 0 0 1 20.935712,35.458948 17.661228,17.661228 0 0 1 38.59694,53.120176 Z"
       style="fill:none;fill-opacity:1;stroke:#000002;stroke-width:0.88306141;stroke-miterlimit:4;stroke-dasharray:none;stroke-opacity:1" /><path
       id="path2"
       d="m 34.830866,42.502678 c -0.303187,0.786248 -0.562252,1.043051 -0.606372,1.06794 -0.929923,-0.408396 -1.386965,0.204763 -1.581547,0.466092 -0.04865,0.06335 -0.119917,0.159513 -0.142543,0.174219 0,-0.0011 -0.0362,0.0045 -0.123311,-0.02489 -1.380176,-0.458174 -3.711769,-0.105211 -4.326061,1.734271 l -0.125573,0.371064 c -0.462698,1.346237 -0.79643,2.319148 0.673118,3.803404 1.303249,1.315692 1.303249,1.849662 1.303249,2.471873 0.0011,0.626736 0.281691,0.987618 0.515869,1.178806 0.474011,0.386902 1.191251,0.476275 2.199232,0.273773 l 0.457042,-0.09616 c 0.444598,-0.09503 1.115454,-0.239835 1.250078,-0.173089 0.0011,0 0.02715,0.05204 0.02262,0.211552 -0.01131,0.334863 -0.141412,0.545283 -0.293005,0.788511 -0.239834,0.38577 -0.640311,1.030607 0.182138,1.851926 0.309975,0.311105 0.958205,0.959335 0.879015,1.289672 -0.01924,0.0758 -0.144806,0.347307 -1.00572,0.632392 -2.651748,0.874489 -3.008105,2.083841 -2.729807,3.876939 0.06674,0.427628 0.01358,0.764753 -0.03847,1.090565 -0.142543,0.894852 -0.142543,1.598516 1.159575,2.511469 0.04751,0.0328 0.105211,0.04751 0.156118,0.07467 M 5.3380788,45.399917 c 0.4400727,0.279429 0.8496004,0.442336 1.2376336,0.480799 0.4717488,0.04751 0.6799067,0.510213 1.0091126,1.480861 0.2613285,0.773805 0.5588583,1.649424 1.2953296,2.113255 0.9027713,0.567908 1.3711274,1.297592 1.5125384,1.544213 0.04525,0.823581 0.340519,4.337375 2.064608,5.200551 1.333793,0.66633 1.88247,1.977498 1.467286,3.503611 -0.486455,1.784048 -0.547545,4.279678 0.738733,5.933628 0.642575,0.826974 1.796493,1.243289 2.786373,1.243289 0.494375,0 0.948023,-0.102947 1.276098,-0.309974 0.541888,-0.34165 0.702532,-0.942366 0.408397,-1.5329 -0.307712,-0.614292 -0.68217,-1.004588 -0.955943,-1.289673 -0.339388,-0.354095 -0.332599,-0.36767 -0.287348,-0.472881 0.09729,-0.228521 0.624473,-0.693482 1.048708,-1.065677 0.776066,-0.6833 1.65508,-1.458236 1.976367,-2.318018 0.177613,-0.47401 1.087172,-1.207088 1.965055,-1.916408 1.088303,-0.877883 2.322543,-1.874552 2.951541,-2.953804 0.385771,-0.659544 0.389165,-1.353026 0.0102,-1.952611 -0.843964,-1.336056 -3.379189,-1.897176 -4.818193,-1.776128 -1.493306,0.132362 -2.39042,-0.854126 -3.767202,-2.338381 l -0.296399,-0.317893 c -1.185595,-1.26931 -1.788573,-1.272703 -2.771666,-0.782854 -0.293005,0.144805 -0.624473,0.309974 -1.107535,0.398214 -1.217271,0.225128 -1.703726,-0.606372 -2.574821,-2.700394 -0.09842,-0.234177 -0.141411,-0.378983 -0.160643,-0.463829 0.02149,-0.008 0.04298,-0.01584 0.06335,-0.02376 0.409527,-0.14933 1.17315,-0.427628 1.562314,-1.708251 0.105211,-0.345044 0.242097,-0.581484 0.366539,-0.633524 0.212683,-0.08937 0.718371,0.177614 1.122242,0.390297 0.366539,0.192319 0.74439,0.392558 1.140342,0.494374 1.711645,0.447992 2.624599,-0.133492 3.13368,-1.997862 0.171956,-0.631261 0.838287,-0.85752 1.834956,-1.131292 0.816793,-0.222864 1.659606,-0.454779 1.977498,-1.194644 0.170825,-0.400478 0.07127,-0.685564 -0.04185,-0.854126 -0.3145,-0.468355 -0.964992,-0.455911 -1.940166,-0.436679 -1.092828,0.02149 -2.592922,0.04865 -3.895039,-0.563384 -0.272641,-0.128967 -0.383508,-0.248884 -0.394821,-0.312236 -0.01358,-0.06787 0.04751,-0.264722 0.352963,-0.579222"
       style="fill:none;stroke:#000000;stroke-width:0.88306141;stroke-miterlimit:4;stroke-dasharray:none;stroke-opacity:1" /></g><flowRoot
     transform="translate(25.815443,20.201766)"
     style="font-style:normal;font-variant:normal;font-weight:normal;font-stretch:normal;font-size:16px;line-height:1.25;font-family:Raleway;-inkscape-font-specification:Raleway;letter-spacing:0px;word-spacing:0px;fill:#000000;fill-opacity:1;stroke:none"
     id="flowRoot831"
     xml:space="preserve"><flowRegion
       id="flowRegion833"><rect
         y="-291.10168"
         x="-11.54661"
         height="384.85168"
         width="95.55085"
         id="rect835" /></flowRegion><flowPara
       id="flowPara837" /></flowRoot></svg>