<?xml version="1.0" encoding="UTF-8" standalone="no"?>
<svg
   width="54px"
   height="54px"
   viewBox="0 0 54 54"
   version="1.1"
   id="svg6"
   sodipodi:docname="logo_light.svg"
   inkscape:version="1.1.2 (08b2f3d93c, 2022-04-05)"
   xmlns:inkscape="http://www.inkscape.org/namespaces/inkscape"
   xmlns:sodipodi="http://sodipodi.sourceforge.net/DTD/sodipodi-0.dtd"
   xmlns="http://www.w3.org/2000/svg"
   xmlns:svg="http://www.w3.org/2000/svg">
  <defs
     id="defs10" />
  <sodipodi:namedview
     id="namedview8"
     pagecolor="#505050"
     bordercolor="#eeeeee"
     borderopacity="1"
     inkscape:pageshadow="0"
     inkscape:pageopacity="0"
     inkscape:pagecheckerboard="0"
     showgrid="false"
     inkscape:zoom="8.0833333"
     inkscape:cx="56.164948"
     inkscape:cy="9.2164948"
     inkscape:window-width="2486"
     inkscape:window-height="1369"
     inkscape:window-x="74"
     inkscape:window-y="34"
     inkscape:window-maximized="1"
     inkscape:current-layer="logo_icon_dark" />
  <g
     id="Artboard-Copy"
     stroke="none"
     stroke-width="1"
     fill="none"
     fill-rule="evenodd">
    <g
       id="logo_icon_dark"
       fill-rule="nonzero">
      <circle
         id="path1409"
         fill="#333333"
         cx="26.756441"
         cy="26.8744603"
         r="25.8130744" />
      <path
         d="M26.815441,0.454645153 C12.2818918,0.454645153 0.456248112,12.2802887 0.456248112,26.8154411 C0.456248112,41.3505936 12.2818918,53.1762371 26.815441,53.1762371 C41.3489902,53.1762371 53.1746337,41.3505936 53.1746337,26.8154411 C53.1746337,12.2802887 41.3489902,0.454645153 26.815441,0.454645153 Z M44.7943953,43.7827385 C44.7334714,43.7811353 44.6725475,43.7699125 44.6100204,43.7827385 C44.3534989,43.8340429 44.1450751,43.8276298 44.0536893,43.7634994 C42.884913,42.945837 42.9330108,42.6492339 43.0724944,41.7690444 C43.1574671,41.2383654 43.261679,40.5810289 43.1286084,39.7248882 C42.8640706,38.0190199 42.8624673,37.0057598 45.9150738,35.9973094 C47.3724369,35.5147283 48.1836863,34.846169 48.3969198,33.9515501 C48.7143652,32.6128282 47.5167302,31.41359 46.72472,30.6183731 C46.5403451,30.4356015 46.4986603,30.3410092 46.4922473,30.3410092 C46.5082799,30.2736723 46.614095,30.1021235 46.6926624,29.975466 C46.9427633,29.5746511 47.3211326,28.9686189 47.3499912,28.0659837 C47.3740401,27.3733755 47.1768392,26.8475063 46.7631982,26.5028055 C46.0064596,25.8679147 44.8937974,26.1100069 43.6047766,26.3889741 L42.977902,26.5204414 C41.6985008,26.7785662 41.2864631,26.5412837 41.1918707,26.462724 C41.1533925,26.4306588 41.0507839,26.3472893 41.0491806,26.0314471 C41.0491806,24.5083504 40.6916537,23.3748458 38.7388834,21.4028364 C37.3568735,20.0063972 37.5428517,19.4628922 38.1617099,17.6624315 L38.3460848,17.1237363 C38.8992094,15.4627592 41.316925,15.30083 42.4488263,15.6808025 C43.7154015,16.1040631 44.3246402,15.2976235 44.6164334,14.9080313 C44.6773573,14.8278684 44.7687431,14.7060206 44.7462975,14.6964011 C44.7479007,14.6964011 44.8008083,14.6964011 44.9274658,14.7541184 C45.3379003,14.9336835 45.7675739,14.93689 46.1748019,14.7541184 C46.6718124,14.5360751 47.107899,14.0246353 47.5087139,13.2614836 C50.0707229,17.159008 51.571374,21.8116676 51.571374,26.8138379 C51.571374,33.3839961 48.9837129,39.346519 44.7943953,43.7827385 L44.7943953,43.7827385 Z M17.1301492,4.03472406 C17.1205296,4.17581092 17.1157198,4.31850103 17.141372,4.45638136 C17.2632197,5.12494066 17.7538172,5.66523918 18.5955285,6.06124432 C20.7791682,7.08733053 23.2097099,7.040836 24.8306055,7.01197733 C25.0759042,7.00716755 25.3404421,7.00556429 25.5937571,7.00396103 C25.2522628,7.1482544 24.8017468,7.2717054 24.383296,7.3871401 C22.9467753,7.78154198 21.160744,8.27053619 20.6589238,10.1142848 C20.08656,12.2145551 19.4388431,12.1424084 18.1674582,11.8153434 C17.7890889,11.7159413 17.3337631,11.4786588 16.8960732,11.2477895 C15.9790087,10.7652083 14.9368899,10.2136869 13.9412656,10.633741 C13.2807226,10.9095017 12.8109675,11.5347729 12.5047449,12.5448266 C12.1856962,13.5933584 11.7431966,13.7552876 11.2750447,13.9268364 C10.9271374,14.0534939 10.4525723,14.226646 10.2249095,14.7509119 C9.98121399,15.3056398 10.1511595,15.9469436 10.481431,16.7405572 C11.5812673,19.3795227 12.7067556,22.1130804 15.900449,21.5278906 C16.8062907,21.3627549 17.4363718,21.0517225 17.894904,20.8240596 C18.6644687,20.4408806 18.8007458,20.3751469 19.9390601,21.592021 L20.3543044,22.0393305 C22.4609877,24.3111495 24.1412038,26.1116101 27.0046256,25.8598984 C28.7986732,25.7091919 31.6204103,26.4963925 32.3402739,27.6363101 C32.4861706,27.8671795 32.6128281,28.2006575 32.2985892,28.7393528 C31.5530734,30.0139442 29.9273681,31.3270139 28.4924506,32.4861707 C26.9501148,33.7303002 25.6194093,34.8044842 25.2137846,35.8882878 C24.8979424,36.7299991 23.7644378,37.7288299 22.852183,38.532063 C21.9832163,39.2984212 21.2328907,39.9589642 20.950717,40.6146974 C20.4601195,41.7578215 21.1350919,42.4616526 21.6753904,43.0243967 C22.0281075,43.3915432 22.4257159,43.8051842 22.808895,44.513825 C22.7527809,44.5859717 22.4225094,44.7479009 21.808461,44.7479009 C20.907429,44.7479009 19.7258266,44.396787 19.1149847,43.6095865 C17.6544151,41.7321694 17.7618335,38.7613292 18.3486265,36.6065481 C19.1406368,33.6934253 18.0263713,31.0785087 15.4403134,29.7862814 C14.1015916,29.1177221 13.4715105,25.6370453 13.3913475,23.6009054 C13.3865378,23.4950903 13.3608856,23.3892752 13.3159943,23.2930796 C13.2823259,23.2225362 12.480696,21.548733 10.5086864,20.3062068 C9.94754554,19.9518864 9.63651315,19.0364251 9.33830685,18.1514257 C8.88458435,16.8143071 8.31863368,15.1485203 6.55023823,14.9721617 C6.3129558,14.9481128 5.93298325,14.8326781 5.39108147,14.4703415 C8.06852517,9.8417307 12.1776799,6.14782035 17.1301492,4.03472406 L17.1301492,4.03472406 Z M2.05950781,26.8154411 C2.05950781,22.8874549 3.00382778,19.183925 4.63754941,15.88121 C5.26121743,16.2772151 5.84159744,16.5080845 6.39151552,16.5625954 C7.06007482,16.6299323 7.3550746,17.2856655 7.82162317,18.6612623 C8.19197616,19.7578919 8.61363347,20.9988149 9.65735553,21.6561514 C10.9367569,22.4609878 11.6005064,23.4950903 11.8009139,23.8446009 C11.8650443,25.011774 12.2834951,29.9914986 14.7268629,31.2147858 C16.617106,32.1591057 17.394687,34.0172837 16.8062907,36.180081 C16.116889,38.7084216 16.030313,42.2452125 17.8532193,44.5891782 C18.7638708,45.761161 20.3991957,46.3511606 21.8020479,46.3511606 C22.5026724,46.3511606 23.1455795,46.205264 23.6105249,45.9118674 C24.3784863,45.427683 24.6061491,44.5763521 24.1893016,43.7394505 C23.753215,42.8688805 23.222536,42.3157559 22.8345472,41.9117345 C22.3535693,41.4099142 22.3631888,41.3906751 22.4273192,41.2415719 C22.5651995,40.9177135 23.3123186,40.2587737 23.9135409,39.7313013 C25.0133771,38.7629324 26.2591099,37.6646995 26.7144356,36.4462222 C26.9661474,35.7744563 28.2551682,34.7355441 29.4992977,33.7303002 C31.0416336,32.4861707 32.7907899,31.0736989 33.6822023,29.5441891 C34.2289139,28.6094887 34.2337236,27.6266905 33.6966316,26.7769629 C32.5005999,24.8835132 28.9076949,24.0882964 26.8683486,24.2598452 C24.7520458,24.4474266 23.4806608,23.0493841 21.5294938,20.9459074 L21.1094397,20.4953914 C19.4292236,18.696534 18.5746861,18.6917242 17.1814535,19.3859357 C16.7662092,19.5911529 16.2964541,19.8252288 15.6118622,19.9502831 C13.8867548,20.2693318 13.1973531,19.0909359 11.9628431,16.1233022 C11.8233595,15.7914274 11.7624357,15.5862102 11.7351803,15.4659657 C11.7656422,15.4547429 11.7961041,15.4435201 11.8249628,15.4322973 C12.4053428,15.220667 13.4875431,14.8262651 14.0390645,13.0113751 C14.1881676,12.5223809 14.382162,12.1872996 14.5585206,12.1135497 C14.8599334,11.9868922 15.5765905,12.3652615 16.1489542,12.6666743 C16.6684104,12.9392284 17.2038991,13.2230054 17.76504,13.3672988 C20.1907719,14.0021896 21.4846025,13.1781141 22.2060694,10.5359421 C22.4497648,9.64132323 23.3940848,9.32067129 24.8065566,8.93268245 C25.9641101,8.61684029 27.1585386,8.28817205 27.6090546,7.2396402 C27.8511468,6.67208627 27.7100599,6.26806482 27.5497339,6.02917913 C27.1040277,5.36542961 26.1821534,5.38306547 24.8001436,5.41032089 C23.2513947,5.44078282 21.1254723,5.47926105 19.2801204,4.61189755 C18.8937348,4.42912595 18.7366154,4.25918042 18.7205828,4.16939788 C18.7013437,4.0732023 18.7879197,3.79423511 19.2207998,3.34852891 C19.2544683,3.31486046 19.2672943,3.27317571 19.2929465,3.23469747 C21.6657708,2.47635563 24.1909049,2.05790485 26.815441,2.05790485 C34.8060873,2.05790485 41.9053213,5.88007598 46.4345299,11.7752619 C46.0048563,12.8895274 45.6377099,13.2534673 45.5751827,13.2887391 C44.2573033,12.7099623 43.6095864,13.5789291 43.3338257,13.949282 C43.2648855,14.0390646 43.1638802,14.1753417 43.131815,14.196184 C43.131815,14.1945808 43.0805107,14.2025971 42.9570597,14.1609123 C41.0010828,13.5115921 37.6967646,14.0118092 36.8261946,16.6187094 L36.6482327,17.1445786 C35.9924995,19.0524577 35.5195379,20.431261 37.6021723,22.5347377 C39.4491274,24.3993288 39.4491274,25.1560674 39.4491274,26.0378602 C39.4507307,26.9260661 39.8483391,27.4375059 40.1802139,27.7084568 C40.8519797,28.2567716 41.8684463,28.3834291 43.2969507,28.0964456 L43.9446676,27.9601686 C44.5747487,27.8254948 45.5254817,27.6202775 45.7162696,27.7148698 C45.7178729,27.7148698 45.7547478,27.7886198 45.7483348,28.0146794 C45.7323022,28.4892443 45.5479273,28.7874506 45.3330905,29.1321514 C44.9931995,29.678863 44.4256455,30.592721 45.5912153,31.7566875 C46.0305085,32.197584 46.9491763,33.1162518 46.8369481,33.5844036 C46.8096927,33.691822 46.6317309,34.0766043 45.4116503,34.4806258 C41.6536095,35.7199455 41.1485827,37.4338301 41.5429846,39.9749968 C41.6375769,40.5810289 41.5622237,41.0588003 41.4884738,41.5205391 C41.2864631,42.7887175 41.2864631,43.7859451 43.131815,45.0797756 C43.1991519,45.1262702 43.2809181,45.1471125 43.3530648,45.1855908 C38.964943,49.1424357 33.173969,51.5729774 26.815441,51.5729774 C13.1636847,51.5729774 2.05950781,40.4671975 2.05950781,26.8154411 L2.05950781,26.8154411 Z"
         id="path2"
         fill="#FFFFFE" />
    </g>
  </g>
</svg>
