<?xml version="1.0" encoding="UTF-8" standalone="no"?>
<svg
   xmlns:dc="http://purl.org/dc/elements/1.1/"
   xmlns:cc="http://creativecommons.org/ns#"
   xmlns:rdf="http://www.w3.org/1999/02/22-rdf-syntax-ns#"
   xmlns:svg="http://www.w3.org/2000/svg"
   xmlns="http://www.w3.org/2000/svg"
   xmlns:sodipodi="http://sodipodi.sourceforge.net/DTD/sodipodi-0.dtd"
   xmlns:inkscape="http://www.inkscape.org/namespaces/inkscape"
   width="30px"
   height="11px"
   viewBox="0 0 30 11"
   version="1.1"
   id="svg8"
   sodipodi:docname="logo_typo_black.svg"
   inkscape:version="0.92.3 (2405546, 2018-03-11)">
  <metadata
     id="metadata14">
    <rdf:RDF>
      <cc:Work
         rdf:about="">
        <dc:format>image/svg+xml</dc:format>
        <dc:type
           rdf:resource="http://purl.org/dc/dcmitype/StillImage" />
      </cc:Work>
    </rdf:RDF>
  </metadata>
  <defs
     id="defs12" />
  <sodipodi:namedview
     pagecolor="#ffffff"
     bordercolor="#666666"
     borderopacity="1"
     objecttolerance="10"
     gridtolerance="10"
     guidetolerance="10"
     inkscape:pageopacity="0"
     inkscape:pageshadow="2"
     inkscape:window-width="2493"
     inkscape:window-height="1376"
     id="namedview10"
     showgrid="false"
     inkscape:zoom="14.966667"
     inkscape:cx="21.388885"
     inkscape:cy="5.5"
     inkscape:window-x="0"
     inkscape:window-y="27"
     inkscape:window-maximized="1"
     inkscape:current-layer="WPRN" />
  <title
     id="title2">WPRN</title>
  <g
     id="Page-1"
     stroke="none"
     stroke-width="1"
     fill="none"
     fill-rule="evenodd"
     font-family="PoiretOne-Regular, Poiret One"
     font-size="12"
     font-weight="normal">
    <g
       aria-label="WPRN"
       style="fill:#000000"
       id="WPRN">
      <path
         d="M 4.188,10.156 0.24,1 H 0.684 L 4.248,9.244 5.916,5.344 4.056,1 H 4.488 L 6.156,4.948 7.872,1 H 8.208 L 6.336,5.332 8.04,9.28 11.676,1 H 12 L 8.004,10.156 6.096,5.764 Z"
         style=""
         id="path821" />
      <path
         d="m 13.16925,1 h 0.396 q 1.248,0 2.124,0.864 0.876,0.852 0.876,2.016 0,1.164 -0.912,2.004 -0.9,0.84 -1.992,0.84 h -0.096 V 10 h -0.396 z m 0.396,5.388 h 0.096 q 1.008,0 1.752,-0.744 0.756,-0.744 0.756,-1.764 0,-1.02 -0.768,-1.776 -0.756,-0.756 -1.74,-0.756 h -0.096 z"
         style=""
         id="path823" />
      <path
         d="m 17.86875,1 h 0.516 q 1.164,0 2.04,0.864 0.888,0.852 0.888,2.016 0,1.152 -0.9,2.004 -0.9,0.852 -1.932,0.852 h -0.084 l 3.096,3.264 h -0.516 l -2.724,-2.856 V 10 h -0.384 z m 0.384,5.388 h 0.216 q 0.972,0 1.716,-0.744 0.744,-0.744 0.744,-1.764 0,-1.02 -0.768,-1.776 -0.768,-0.756 -1.752,-0.756 h -0.156 z"
         style=""
         id="path825" />
      <path
         d="m 29.36775,1 h 0.348 v 9.132 l -6.624,-8.148 V 10 h -0.348 V 0.868 l 6.624,8.136 z"
         style=""
         id="path827" />
    </g>
  </g>
</svg>
